<svg xmlns="http://www.w3.org/2000/svg" viewBox="0 0 270.73 371.77"><defs><style>.cls-1{fill:#f15152;}</style></defs><g id="Ebene_2" data-name="Ebene 2"><g id="Ebene_1-2" data-name="Ebene 1"><path class="cls-1" d="M207,320.82c41.5-44.57,48.85-98.9,44.52-156.49-.68-9.07-2-18.08-3-27.12-1.87-6-3.61-12.43,1.92-17,3.83-3.13,7.46,1,10.82,3.12,17.53,75,14.11,145.75-41.14,206.2C211.29,333.45,203.14,336.21,207,320.82Z"/><path class="cls-1" d="M207,320.82a21.52,21.52,0,0,0,13.15,8.75c-25.44,28.09-58.11,40.17-95,41.93-16,.76-32.16-.29-48.24-.52-5.31-11.88,5.46-8.84,10-9.89,10.55-2.42,22.83,4.49,32-6C151.87,352.82,181.32,341.62,207,320.82Z"/><path class="cls-1" d="M119,355.12c4.35,11.89-5.45,10.3-11.42,11.43-10.12,1.91-20.39,3-30.59,4.43l-25.74.54C43.93,355.11,48,338,47.89,321.08c4.2-2.59,6-13.62,13.7-4,1.62,8.15-1.59,16.7,2,24.69.77,9.56,6,12.91,15.42,12.66C92.34,354.12,105.65,354.85,119,355.12Z"/><path class="cls-1" d="M261.33,123.37c-2.29,6.41-12.66,5.39-12.74,13.84L233.53,93.83c3.13-8.86,9.3-6.59,15.49-4.22,1.42,1.45,2.85,2.89,4.28,4.34Z"/><path class="cls-1" d="M206.59,204.92c.43-34.35-3.24-67.82-21.18-98.21.39-8.3,3.47-12.69,12.42-8.54,30.43,43.08,31.51,89.87,17.48,138.56C199.11,229.77,206.63,216.31,206.59,204.92Z"/><path class="cls-1" d="M197.83,98.17l-12.42,8.54c-18.64-19.93-37.33-39.79-66.77-42.91-21.08-3.44-42.33-.44-63.45-1.72-6.27-.38-17,3.69-14.14-10.11,27.47-3.33,54.94-5,82.31.9,5.52,1.18,11,1.69,16.33-.55C165.09,60,184.14,75.67,197.83,98.17Z"/><path class="cls-1" d="M42.93,51.84c7.9,8.79,18.55,7.5,28.78,7.92,15.7.65,31.68-1.87,46.93,4Q83.3,63.61,48,63.4C18.29,63.28,18.37,63.31,18.27,92c0,9-.57,18-.88,27-5.32,6.36-10.63,6.41-15.94,0,1.15-23.65-6.1-47.78,4-70.92C17.7,51.81,30.88,46.23,42.93,51.84Z"/><path class="cls-1" d="M47.88,219.85l0-113.35c7.87-8.07,13.7-11.1,14.17,4.65.7,23.62-2.25,47.32,1.59,70.87l0,92.49c-15.3,4.16-9-9.63-10.07-14.25C50.68,247.06,58.45,232.24,47.88,219.85Z"/><path class="cls-1" d="M1.45,119H17.39V224c-18.93,7.5-11.27-10.38-15.83-16.59Q1.51,163.22,1.45,119Z"/><path class="cls-1" d="M160.81,9.71c25.54,7.32,46.12,22,62.89,42.38-2.15,8.27,15.93,16.35.24,24.76C200,48,170.82,27.39,133.75,19.06c-.11-8.44,5.09-9.76,11.85-8.64C150.75,11.27,155.89,13.25,160.81,9.71Z"/><path class="cls-1" d="M160.81,9.71l-27.06,9.35c-38-.36-76.12-.5-114.17-1.22C10.36,17.67-4.06,20.25,5.66,2.29,44.73,3.55,83.81,5,122.86,1.54,136.84-1.94,148,7.85,160.81,9.71Z"/><path class="cls-1" d="M122.71,308.32c21.53-9.88,43.32-19.36,58.66-38.65,8.06-2.19,12.68.52,13.11,9.21-11.78,19.41-30.08,30.36-50.15,39.26C133,323.16,125.4,321.55,122.71,308.32Z"/><path class="cls-1" d="M17.38,299.7l.22,50.61C7.14,356,4.3,349.52,3.18,341c-1-8,1.58-16.25-1.71-24.1q0-29.49,0-59c8.57-4.6,10.38,1.09,12.14,7.66C16.58,276.77,14.08,288.55,17.38,299.7Z"/><path class="cls-1" d="M47.88,219.85c13.61-5.45,11.17,5.45,11.69,12.08,1.13,14.22-1.27,28.76,4.12,42.58l-.06,67.3-3.81-25c-10.38-13.77-4.66-31.71-12-46.27Z"/><path class="cls-1" d="M194.48,278.88l-13.11-9.21c13-19.77,19.66-42.05,25.22-64.74,1.74,10.91,3.68,21.78,8.72,31.8C212.51,252.83,205.33,266.77,194.48,278.88Z"/><path class="cls-1" d="M17.38,299.7c-5.66-13.8-4-30.41-15.95-41.8l.12-50.45c4.1,6.65,8.77,12.77,15.83,16.59Z"/><path class="cls-1" d="M63.66,182c-6.47-18.92-2.94-38.5-3.8-57.78-.39-8.57.19-17.31-12-17.74,2.26-8.8-4.76-26.59,16.47-17Q64,135.77,63.66,182Z"/><path class="cls-1" d="M42.93,51.84C30.35,51.48,17.58,53,5.46,48.08,50.28,47,95.21,42.51,139.69,52.32Z"/><path class="cls-1" d="M223.94,76.85c.37-8.26-5.47-16.46-.24-24.76C235.14,62.57,243.83,74.91,249,89.61l-15.49,4.22Z"/><path class="cls-1" d="M1.47,316.87c4.87,11.39,2.43,26.31,16.13,33.44q-.2,9.88-.38,19.77C4.75,373.64.8,367,.84,356.1.88,343,1.24,330,1.47,316.87Z"/><path class="cls-1" d="M122.86,1.54c-39,6.64-78.1,5.57-117.2.75C44.7-1.39,83.78.15,122.86,1.54Z"/><path class="cls-1" d="M47.85,270.55c10.49,13.74,13.12,29.51,12,46.27-3.45,2.9-7.26,4.79-11.93,4.26Q47.88,295.82,47.85,270.55Z"/><ellipse class="cls-1" cx="70.44" cy="11.7" rx="56.65" ry="1.39"/></g></g></svg>